<?xml version="1.0" encoding="UTF-8"?>
<svg width="11px" height="14px" viewBox="0 0 11 14" version="1.1" xmlns="http://www.w3.org/2000/svg" xmlns:xlink="http://www.w3.org/1999/xlink">
    <title>notifications-24px</title>
    <g id="Symbols" stroke="none" stroke-width="1" fill="none" fill-rule="evenodd">
        <g id="notification" fill="#000000" fill-rule="nonzero">
            <g id="notifications-24px">
                <path d="M5.5,14 C6.25625,14 6.875,13.3538462 6.875,12.5641026 L4.125,12.5641026 C4.125,13.3538462 4.736875,14 5.5,14 Z M9.625,9.69230769 L9.625,6.1025641 C9.625,3.89846154 8.4975,2.05333333 6.53125,1.56512821 L6.53125,1.07692308 C6.53125,0.481025641 6.070625,0 5.5,0 C4.929375,0 4.46875,0.481025641 4.46875,1.07692308 L4.46875,1.56512821 C2.495625,2.05333333 1.375,3.89128205 1.375,6.1025641 L1.375,9.69230769 L0,11.1282051 L0,11.8461538 L11,11.8461538 L11,11.1282051 L9.625,9.69230769 Z" id="Shape"></path>
            </g>
        </g>
    </g>
</svg>